<?xml version="1.0" standalone="no"?>
<!DOCTYPE svg PUBLIC "-//W3C//DTD SVG 20010904//EN"
 "http://www.w3.org/TR/2001/REC-SVG-20010904/DTD/svg10.dtd">
<svg version="1.0" xmlns="http://www.w3.org/2000/svg"
 width="250.000000pt" height="250.000000pt" viewBox="0 0 250.000000 250.000000"
 preserveAspectRatio="xMidYMid meet">

<g transform="translate(0.000000,250.000000) scale(0.100000,-0.100000)"
fill="#000000" stroke="none">
<path d="M810 2300 c-243 -21 -403 -98 -500 -240 -89 -131 -107 -235 -116
-660 -7 -338 5 -614 32 -729 39 -172 149 -314 296 -385 142 -68 163 -70 718
-70 560 0 581 2 726 74 146 71 255 215 290 380 21 103 29 288 28 670 -2 379
-12 491 -55 604 -49 133 -154 241 -288 297 -126 53 -206 61 -641 64 -217 2
-438 0 -490 -5z m933 -231 c90 -14 185 -58 227 -106 87 -99 100 -188 100 -700
0 -506 -12 -588 -94 -680 -98 -109 -172 -124 -631 -127 -607 -5 -712 8 -816
102 -100 90 -117 166 -123 557 -1 99 1 288 5 420 7 198 12 252 28 306 36 114
127 193 251 218 30 6 64 13 75 15 49 9 911 5 978 -5z"/>
<path d="M1715 1839 c-31 -28 -35 -36 -35 -81 0 -44 4 -54 34 -84 28 -28 41
-34 78 -34 50 0 82 18 103 60 28 53 11 120 -37 154 -12 9 -42 16 -65 16 -33 0
-50 -7 -78 -31z"/>
<path d="M1130 1749 c-135 -26 -285 -143 -348 -272 -139 -283 -10 -613 283
-727 86 -34 253 -34 340 0 169 65 280 190 325 366 25 97 25 151 0 248 -26 104
-63 169 -135 242 -121 122 -295 176 -465 143z m235 -237 c53 -28 98 -72 132
-130 25 -42 28 -56 28 -142 0 -86 -3 -100 -28 -142 -33 -57 -78 -102 -132
-131 -33 -18 -56 -22 -130 -22 -80 0 -95 3 -137 27 -130 77 -186 219 -143 365
23 79 111 167 193 194 48 15 173 5 217 -19z"/>
</g>
</svg>
