<?xml version="1.0" standalone="no"?>
<!DOCTYPE svg PUBLIC "-//W3C//DTD SVG 20010904//EN"
 "http://www.w3.org/TR/2001/REC-SVG-20010904/DTD/svg10.dtd">
<svg version="1.0" xmlns="http://www.w3.org/2000/svg"
 width="250.000000pt" height="250.000000pt" viewBox="0 0 250.000000 250.000000"
 preserveAspectRatio="xMidYMid meet">

<g transform="translate(0.000000,250.000000) scale(0.100000,-0.100000)"
fill="#000000" stroke="none">
<path d="M1011 2299 c-176 -16 -412 -74 -488 -121 -53 -32 -152 -147 -183
-213 -68 -143 -84 -272 -77 -615 9 -409 43 -622 125 -786 120 -239 290 -332
669 -365 198 -17 402 7 536 64 l37 16 0 88 c0 48 -4 94 -8 100 -6 10 -29 8
-103 -9 -72 -16 -128 -22 -239 -22 -169 -1 -248 13 -322 58 -60 36 -97 97
-106 172 l-5 47 34 -7 c301 -61 710 -54 937 15 155 48 302 150 354 246 39 71
59 228 65 514 5 217 4 243 -16 320 -29 118 -81 218 -153 294 -72 77 -100 96
-198 128 -220 73 -556 103 -859 76z m69 -405 c50 -27 95 -76 132 -143 25 -45
50 -40 81 18 93 170 302 212 441 90 25 -23 58 -61 72 -85 48 -83 54 -126 54
-441 l0 -293 -94 0 -95 0 -3 303 c-3 335 -3 336 -71 378 -42 27 -144 23 -184
-7 -58 -44 -68 -81 -71 -281 l-4 -183 -88 0 -88 0 -4 188 c-3 205 -10 230 -71
275 -40 31 -141 35 -184 8 -68 -42 -68 -43 -71 -378 l-3 -303 -95 0 -94 0 0
299 c0 336 8 387 73 473 35 45 121 104 166 112 64 11 149 -2 201 -30z"/>
</g>
</svg>
