<?xml version="1.0" standalone="no"?>
<!DOCTYPE svg PUBLIC "-//W3C//DTD SVG 20010904//EN"
 "http://www.w3.org/TR/2001/REC-SVG-20010904/DTD/svg10.dtd">
<svg version="1.0" xmlns="http://www.w3.org/2000/svg"
 width="250.000000pt" height="250.000000pt" viewBox="0 0 250.000000 250.000000"
 preserveAspectRatio="xMidYMid meet">

<g transform="translate(0.000000,250.000000) scale(0.100000,-0.100000)"
fill="#000000" stroke="none">
<path d="M260 2292 c-74 -37 -70 26 -70 -1042 0 -889 1 -957 18 -990 35 -71
25 -70 605 -70 l517 0 0 410 0 410 -145 0 -145 0 0 150 0 150 145 0 145 0 0
139 c0 224 34 352 119 443 48 52 115 91 190 108 55 13 307 10 330 -4 7 -5 11
-57 11 -156 l0 -148 -141 -4 -141 -3 -29 -33 -29 -32 0 -155 0 -155 158 0 c87
0 161 -2 164 -5 4 -4 -3 -52 -32 -227 l-12 -68 -139 0 -139 0 0 -410 0 -410
283 0 c317 0 336 4 369 70 17 33 18 101 18 990 0 1068 4 1005 -70 1042 -33 17
-101 18 -990 18 -889 0 -957 -1 -990 -18z"/>
</g>
</svg>
