<?xml version="1.0" standalone="no"?>
<!DOCTYPE svg PUBLIC "-//W3C//DTD SVG 20010904//EN"
 "http://www.w3.org/TR/2001/REC-SVG-20010904/DTD/svg10.dtd">
<svg version="1.0" xmlns="http://www.w3.org/2000/svg"
 width="250.000000pt" height="250.000000pt" viewBox="0 0 250.000000 250.000000"
 preserveAspectRatio="xMidYMid meet">

<g transform="translate(0.000000,250.000000) scale(0.100000,-0.100000)"
fill="#000000" stroke="none">
<path d="M628 1961 c-140 -45 -252 -158 -288 -289 -16 -61 -14 -189 4 -239 8
-24 11 -43 6 -43 -5 0 -34 -26 -65 -57 -223 -231 -63 -612 258 -613 l72 -1 20
-42 c10 -23 41 -64 67 -90 171 -171 459 -143 593 58 27 42 41 55 53 50 131
-50 274 -16 375 89 l52 53 85 1 c203 2 369 120 436 311 44 124 27 292 -39 401
-107 175 -318 258 -522 205 l-60 -16 -19 28 c-126 176 -387 213 -548 78 l-30
-25 -39 34 c-125 113 -272 151 -411 107z m827 -521 c3 -6 -2 -13 -12 -16 -35
-11 -48 -21 -51 -43 -3 -16 2 -21 17 -21 12 0 21 -4 21 -10 0 -5 -9 -10 -19
-10 -26 0 -29 -5 -47 -102 -24 -132 -33 -148 -86 -148 -33 0 -35 23 -2 28 30
6 33 13 53 116 15 81 16 99 5 103 -18 7 -18 23 0 23 8 0 20 16 26 35 6 19 19
39 28 45 22 12 59 13 67 0z m-555 -130 c0 -109 -2 -130 -15 -130 -13 0 -15 21
-15 130 0 109 2 130 15 130 13 0 15 -21 15 -130z m-292 54 c40 -11 26 -33 -20
-31 -58 3 -64 -24 -10 -46 21 -8 44 -22 51 -31 18 -22 6 -64 -24 -78 -29 -13
-94 -2 -102 18 -8 22 0 25 35 12 23 -9 37 -9 49 -2 27 17 20 28 -32 54 -57 29
-68 57 -36 89 21 21 48 26 89 15z m190 -10 c20 -13 22 -24 22 -94 l0 -79 -47
-7 c-76 -11 -114 20 -99 81 6 25 64 49 91 39 19 -8 29 14 14 33 -10 11 -24 14
-56 9 -33 -4 -43 -2 -43 8 0 27 84 34 118 10z m265 7 c26 -10 53 -62 43 -86
-4 -11 -21 -15 -66 -15 -46 0 -60 -3 -60 -15 0 -23 45 -47 81 -43 45 4 49 -19
5 -27 -53 -10 -88 5 -110 50 -17 35 -18 42 -5 79 19 56 60 76 112 57z m193 -1
c35 -14 22 -25 -29 -25 -58 0 -55 -24 6 -53 44 -21 48 -25 45 -54 -4 -45 -42
-66 -94 -53 -26 7 -40 17 -42 29 -3 15 0 17 14 11 38 -15 64 -17 79 -5 20 17
5 35 -41 50 -77 26 -63 106 18 109 9 1 29 -4 44 -9z m321 -5 c47 -33 47 -137
0 -170 -41 -28 -106 -12 -126 32 -15 32 -14 95 2 115 30 38 87 49 124 23z
m331 -7 c3 -15 -2 -17 -26 -12 -22 5 -35 1 -51 -15 -45 -45 -10 -129 49 -117
19 3 30 1 34 -9 7 -19 -50 -30 -86 -16 -29 11 -58 57 -58 91 0 32 28 80 53 90
35 14 81 8 85 -12z m167 -3 c16 -15 25 -36 25 -55 l0 -30 -65 0 c-70 0 -78 -7
-44 -41 17 -17 29 -20 60 -15 30 5 39 3 39 -8 0 -18 -50 -30 -90 -21 -17 4
-38 18 -47 31 -19 29 -21 91 -4 123 24 45 90 53 126 16z m-317 3 c-2 -6 -12
-12 -22 -14 -36 -5 -46 -25 -46 -90 0 -57 -2 -64 -20 -64 -19 0 -20 7 -20 89
l0 89 56 1 c37 0 54 -4 52 -11z"/>
<path d="M710 1255 c-21 -25 0 -50 41 -50 31 0 34 3 34 30 0 26 -4 30 -31 33
-19 2 -36 -3 -44 -13z"/>
<path d="M997 1322 c-25 -28 -21 -32 28 -32 46 0 58 13 33 38 -17 17 -42 15
-61 -6z"/>
<path d="M1497 1322 c-24 -26 -22 -85 3 -107 17 -15 24 -16 45 -7 22 10 25 18
25 61 0 39 -4 53 -19 61 -27 14 -35 13 -54 -8z"/>
<path d="M1987 1322 c-25 -28 -21 -32 26 -32 53 0 62 8 40 32 -21 23 -45 23
-66 0z"/>
</g>
</svg>
