<?xml version="1.0" standalone="no"?>
<!DOCTYPE svg PUBLIC "-//W3C//DTD SVG 20010904//EN"
 "http://www.w3.org/TR/2001/REC-SVG-20010904/DTD/svg10.dtd">
<svg version="1.0" xmlns="http://www.w3.org/2000/svg"
 width="250.000000pt" height="250.000000pt" viewBox="0 0 250.000000 250.000000"
 preserveAspectRatio="xMidYMid meet">

<g transform="translate(0.000000,250.000000) scale(0.100000,-0.100000)"
fill="#000000" stroke="none">
<path d="M324 2292 c-50 -28 -69 -45 -102 -91 l-32 -44 0 -909 c0 -665 3 -915
11 -931 21 -39 61 -81 103 -109 l41 -28 910 0 910 0 46 29 c25 16 60 51 77 77
l32 47 0 911 c0 1015 6 929 -68 1002 -68 68 -5 64 -999 64 -828 -1 -900 -2
-929 -18z m433 -301 c120 -55 136 -234 27 -317 -33 -26 -45 -29 -109 -29 -63
0 -76 3 -109 29 -68 51 -93 145 -61 223 21 50 42 72 90 94 51 24 109 24 162 0z
m1025 -481 c112 -34 196 -128 224 -249 10 -41 14 -152 14 -418 l0 -363 -154 0
-155 0 -3 318 -3 317 -25 44 c-34 61 -79 86 -152 85 -71 -1 -127 -35 -160 -97
-22 -41 -23 -52 -26 -354 l-3 -313 -150 0 -149 0 0 510 0 510 150 0 150 0 0
-55 c0 -61 11 -69 41 -31 27 35 115 88 168 102 69 19 161 17 233 -6z m-952
-520 l0 -510 -155 0 -155 0 0 510 0 510 155 0 155 0 0 -510z"/>
</g>
</svg>
